<svg
  xmlns="http://www.w3.org/2000/svg"
  width="48"
  height="48"
  viewBox="0 0 48 48"
  fill="none"
  stroke="currentColor"
  stroke-width="2"
  stroke-linecap="round"
  stroke-linejoin="round"
>
  <!-- Base arrow pointing down -->
  <path
    style="fill:currentColor"
    d="m 3.5,33.4 c 0,0 7,4.4 20,4.7 C 37.5,37.5 44.5,33.4 44.5,33.4 L 24,46 Z" />
  <!-- Volcano caldera outline -->
  <path
    d="M 15,27 C 10,34 2.5,15 2.5,32 2.5,34.75 17,37 24,37 31.5,37 45.5,34.75 45.5,32 45.5,15 38,34 33,27" />
  <!-- Two thin wiggle lines outline main cloud -->
  <path
    d="M 8,7 C 2.9999998,17 24,20 18,32" />
  <path
    d="M 40,7 C 45,17 24,20 30,32" />
  <!-- Ash cloud -->
  <path
    d="m 17,11.5 c 0.01192,-4.3512591 4.999576,-1.458628 5,3.5 4.24e-4,4.955326 -3.915008,4.059731 -8,-0.5 C 10.051575,10.092707 11.052875,6.0415598 13.5,4 16.001741,1.9128753 20.088141,3.0733117 22,6.5 c 2.52678,4.528832 11.504868,-4.458285 14,0 1.998595,3.571076 -2.111987,9.578252 -6,11.5 -4.12685,2.039799 -5.952319,-2.88614 0,-6" />
</svg>
